<?xml version="1.0" encoding="utf-8"?>
<!-- Generator: Adobe Illustrator 25.4.1, SVG Export Plug-In . SVG Version: 6.00 Build 0)  -->
<svg version="1.1" id="Layer_1" xmlns="http://www.w3.org/2000/svg" xmlns:xlink="http://www.w3.org/1999/xlink" x="0px" y="0px"
	 viewBox="0 0 256 256" style="enable-background:new 0 0 256 256;" xml:space="preserve">
<style type="text/css">
	.st0{fill:#D92F5E;}
	.st1{fill:#D3D3D3;}
	.st2{fill:#FFFFFF;}
</style>
<circle class="st0" cx="128" cy="128" r="128"/>
<g>
	<path class="st1" d="M41.7,128.4h12.8c1.8,0,3.2,1.4,3.2,3.2v51.1c0,1.8-1.4,3.2-3.2,3.2H41.7c-1.8,0-3.2-1.4-3.2-3.2v-51.1
		C38.5,129.8,39.9,128.4,41.7,128.4z"/>
	<path class="st1" d="M96.1,52.9c-0.6-0.6-1.4-0.9-2.3-0.9c-0.8,0-1.6,0.3-2.2,0.9L55.5,89.1c-1.2,1.2-1.2,3.3,0,4.5l9,9
		c1.2,1.2,3.3,1.2,4.5,0l36.2-36.2c1.2-1.2,1.2-3.3,0-4.5L96.1,52.9z"/>
	<path class="st1" d="M201.5,125.2h12.8c1.8,0,3.2,1.4,3.2,3.2v57.5c0,1.8-1.4,3.2-3.2,3.2h-12.8c-1.8,0-3.2-1.4-3.2-3.2v-57.5
		C198.3,126.6,199.7,125.2,201.5,125.2z"/>
</g>
<path class="st2" d="M191.9,138h-23c-0.8,0-1.7-0.3-2.3-0.9l-61.5-61.5L78,102.7l29.8,29.8c0.9,0.9,1.2,2.3,0.7,3.5
	c-0.5,1.2-1.6,2-2.9,2H64.1v38.4h127.8V138z"/>
</svg>
